<svg width="450" height="850" viewBox="0 0 450 850" fill="none" xmlns="http://www.w3.org/2000/svg">
<rect width="448.5" height="448.5" transform="matrix(-1 0 0 1 449.25 401.5)" fill="#A284E8"/>
<path d="M449.25 761.5C449.25 562.678 288.072 401.5 89.25 401.5H0.75V850H449.25V761.5Z" fill="#FFC464"/>
<rect width="448.5" height="448.5" transform="matrix(-1 0 0 1 449.25 -47)" fill="#A95094"/>
<path d="M225 177.25H112.875V199.375C112.875 249.081 153.169 289.375 202.875 289.375H225V177.25Z" fill="#EE6C6C"/>
<path d="M112.875 177.25H0.749931V289.375H22.875C72.5806 289.375 112.875 249.081 112.875 199.375V177.25Z" fill="#EE6C6C"/>
<path d="M225 289.375H202.875C153.169 289.375 112.875 329.669 112.875 379.375V401.5H225V289.375Z" fill="#EE6C6C"/>
<path d="M112.875 379.375C112.875 329.669 72.5806 289.375 22.875 289.375H0.749931V401.5H112.875V379.375Z" fill="#EE6C6C"/>
</svg>
